<svg width="524" height="524" xmlns="http://www.w3.org/2000/svg" clip-rule="evenodd" fill-rule="evenodd" image-rendering="optimizeQuality" text-rendering="geometricPrecision" shape-rendering="geometricPrecision">

 <g>
  <title>Layer 1</title>
  <ellipse stroke-width="29" ry="247" rx="247" id="svg_5" cy="261" cx="262" stroke="#005133" fill="none"/>
  <path stroke="null" id="svg_2" d="m77.7834,343.06l367.43495,0c6.97974,0 43.70166,-3.11856 43.70166,11.09528l-24,62.03952c-20,12.21378 -61.78769,50.09518 -120.70166,88.09518l-201.43495,-15c-8.91396,-5 -53.69341,-36.74622 -61.69341,-41.09518l-50,-90.03952c0,-14.349 39.71368,-15.09528 46.69341,-15.09528z" fill="#005133"/>
  <path stroke="null" id="svg_3" d="m119.5685,390.56561l-10.41588,0l0,5.08801l12.75986,0l0,6.91843l-23.16747,0l0,-31.7941l22.90337,0l-1.29579,6.91843l-11.19997,0l0,5.49118l10.41588,0l0,7.37805zm29.93533,2.90283l0.77582,8.53915c-2.17891,0.88699 -4.92731,1.32239 -8.22044,1.32239c-3.30139,0 -5.9425,-0.33865 -7.93983,-1.01596c-1.99734,-0.67734 -3.56551,-1.74173 -4.71274,-3.2012c-1.14723,-1.45947 -1.93956,-3.16891 -2.39351,-5.13638c-0.45393,-1.96747 -0.67677,-4.39459 -0.67677,-7.27322c0,-2.88669 0.22284,-5.32187 0.67677,-7.30545c0.45395,-1.98361 1.24628,-3.70111 2.39351,-5.16061c2.22018,-2.81412 6.29739,-4.21716 12.23164,-4.21716c1.32056,0 2.87221,0.12903 4.66321,0.37897c1.78275,0.25806 3.11156,0.57254 3.97816,0.94345l-1.55989,7.78119c-2.2532,-0.47574 -4.32483,-0.70959 -6.19011,-0.70959c-1.88179,0 -3.17758,0.16129 -3.91214,0.50803c-0.7263,0.33865 -1.08946,1.01599 -1.08946,2.03195l0,13.3208c1.35358,0.27414 2.72365,0.41122 4.11023,0.41122c2.95474,0 5.57109,-0.41122 7.86555,-1.21756zm4.42386,-6.76523c0,-5.79761 1.10597,-10.03091 3.3344,-12.69183c2.22018,-2.66092 6.22311,-3.99139 12.02531,-3.99139c5.79393,0 9.79686,1.33047 12.01704,3.99139c2.22844,2.66092 3.3344,6.89423 3.3344,12.69183c0,2.87863 -0.23109,5.30576 -0.70154,7.27322c-0.47044,1.96747 -1.27104,3.67691 -2.41827,5.13638c-1.14723,1.45947 -2.72365,2.52386 -4.73749,3.2012c-2.01384,0.67731 -4.51463,1.01596 -7.49414,1.01596c-2.98776,0 -5.48857,-0.33865 -7.50241,-1.01596c-2.01384,-0.67734 -3.59026,-1.74173 -4.73749,-3.2012c-1.14723,-1.45947 -1.94783,-3.16891 -2.41827,-5.13638c-0.47044,-1.96747 -0.70154,-4.39459 -0.70154,-7.27322zm11.19171,-5.28961l0,13.224l4.31656,0c1.42784,0 2.45952,-0.16125 3.1033,-0.48376c0.64377,-0.32257 0.9574,-1.06439 0.9574,-2.21744l0,-13.22403l-4.36607,0c-1.39484,0 -2.40176,0.16125 -3.04553,0.4838c-0.64377,0.32254 -0.96565,1.06439 -0.96565,2.21744zm23.42332,10.98239l0,-5.49121c0,-0.91922 0.28888,-1.49979 0.85837,-1.75781c0.57774,-0.24997 1.48563,-0.37897 2.74014,-0.37897l12.02531,0l0,5.49118c0,0.91925 -0.28888,1.49982 -0.85837,1.75781c-0.57774,0.24997 -1.48561,0.379 -2.74014,0.379l-12.02531,0zm40.35121,-1.62881l-8.85597,0l0,11.80487l-10.40762,0l0,-31.7941l21.34348,0l-1.30405,6.91843l-9.63181,0l0,5.49118l8.85597,0l0,7.57962zm35.1433,11.80487l-11.45581,0l-4.26709,-9.46649l-2.24493,0l0,9.46649l-10.40759,0l0,-31.7941l16.3996,0c7.46118,0 11.19171,3.71725 11.19171,11.14365c0,5.08801 -1.60941,8.44241 -4.84479,10.07123l5.62891,10.57922zm-17.96783,-23.65002l0,6.35397l2.40176,0c1.24631,0 2.15417,-0.12903 2.7319,-0.379c0.56946,-0.25803 0.85834,-0.83859 0.85834,-1.75781l0,-2.08841c0,-0.91119 -0.28888,-1.49982 -0.85834,-1.74979c-0.57773,-0.25803 -1.4856,-0.37897 -2.7319,-0.37897l-2.40176,0zm23.16748,23.65002l0,-31.7941l10.41589,0l0,31.7941l-10.41589,0zm38.00723,-12.00644l-10.41589,0l0,5.08801l12.75992,0l0,6.91843l-23.16751,0l0,-31.7941l22.90335,0l-1.29578,6.91843l-11.19998,0l0,5.49118l10.41589,0l0,7.37805zm27.43454,12.00644l-8.69089,-13.73203l0,13.73203l-10.41586,0l0,-31.7941l9.78857,0l8.69092,13.73199l0,-13.73199l10.41583,0l0,31.7941l-9.78857,0zm16.55646,0l0,-31.7941l14.57562,0c5.86819,0 9.88763,1.22565 12.07483,3.66888c2.18719,2.43512 3.28488,6.51523 3.28488,12.23218c0,5.70892 -1.09769,9.789 -3.28488,12.23224c-2.18719,2.43515 -6.20663,3.6608 -12.07483,3.6608l-14.57562,0zm14.73245,-23.65002l-4.32483,0l0,15.50595l4.32483,0c1.41962,0 2.45126,-0.16129 3.09503,-0.4838c0.64377,-0.31448 0.96564,-1.0563 0.96564,-2.20938l0,-10.1196c0,-1.15308 -0.32187,-1.89493 -0.96564,-2.21744c-0.64377,-0.31448 -1.67542,-0.47574 -3.09503,-0.47574zm41.23428,23.65002l-20.83173,0l0,-31.7941l10.41586,0l0,23.65002l10.41586,0l0,8.14407zm9.41724,-31.7941l2.86395,11.19205l0.36316,0l2.92169,-11.19205l11.49713,0l-9.36774,23.14203l0,8.65207l-10.40759,0l0,-8.65207l-9.37595,-23.14203l11.50534,0z" fill-rule="nonzero" fill="#fff"/>
  <path stroke="null" id="svg_4" d="m367.52731,320.97c50.31723,-45.88712 64.79288,-126.75652 21.45175,-249.18999c-50.5575,38.16674 -118.99716,63.49398 -155.94568,112.83395c23.4339,21.9762 42.97217,46.1926 49.87103,77.35175c30.8905,-39.88857 63.5058,-76.78706 81.15628,-117.61058c-16.78384,90.78368 -41.89099,132.13487 -78.91672,176.61488l82.38333,0zm-235.54025,0c-28.41071,-40.76794 -28.22194,-101.31819 15.46242,-183.49284c51.19247,53.18163 136.60475,89.40439 112.20125,183.49284l-40.18343,0c-19.34947,-40.64761 -46.73906,-76.98146 -56.8643,-114.87048c2.09369,54.98679 12.14171,85.3313 28.33347,114.87048l-58.9494,0z" fill-rule="nonzero" fill="#005133"/>
 </g>
</svg>