<svg width="524" height="524" xmlns="http://www.w3.org/2000/svg" clip-rule="evenodd" fill-rule="evenodd" image-rendering="optimizeQuality" text-rendering="geometricPrecision" shape-rendering="geometricPrecision">

 <g>
  <title>Layer 1</title>
  <ellipse stroke="#71D4ED" stroke-width="21" ry="251.5" rx="249.5" id="svg_5" cy="262.5" cx="262.5" fill="none"/>
  <g id="svg_1" fill-rule="nonzero">
   <g stroke="null" id="svg_4">
    <path stroke="null" id="svg_2" d="m218.40186,308.63275l-47.79012,-2.80392a6.26005,6.55593 0 0 1 -4.08359,-11.18201l-0.00943,-0.01068l31.58682,-33.0806l-31.90245,-37.3761a6.25141,6.54688 0 0 1 4.65753,-10.90981l0,-0.02715l44.66125,0l2.6774,-50.04886a6.26005,6.55593 0 0 1 10.67734,-4.2766l0.01019,-0.0107l31.58765,33.08058l35.68927,-33.41031a6.25141,6.54688 0 0 1 8.82516,0.51309a6.22236,6.51646 0 0 1 1.59149,4.36458l0.0267,0l0,46.77214l47.7901,2.80394a6.25927,6.5551 0 0 1 4.08362,11.18115l0.0094,0.01068l-31.58682,33.0806l31.90247,37.37692a6.25141,6.54688 0 0 1 -0.48996,9.24228a6.22629,6.52057 0 0 1 -4.1676,1.66675l0,0.02795l-44.66125,0l-2.67737,50.04803a6.26084,6.55675 0 0 1 -10.67737,4.27658l-0.01016,0.01068l-31.58765,-33.08057l-35.68927,33.41113a6.25141,6.54688 0 0 1 -8.82516,-0.51309a6.22236,6.51646 0 0 1 -1.59152,-4.36459l-0.02667,0l0,-46.77213zm-33.1069,-15.07544l39.38263,2.30484a6.27654,6.57319 0 0 1 6.27576,6.57236l0,38.31595l29.26514,-27.39706l0.13818,-0.14966a6.27575,6.57237 0 0 1 8.87387,0l25.86145,27.08459l2.20081,-41.24402a6.27654,6.57319 0 0 1 6.27573,-6.57236l36.5867,0l-26.15982,-30.64917l-0.14368,-0.14389a6.27575,6.57237 0 0 1 0,-9.29324l25.86227,-27.08463l-39.38266,-2.30399a6.27654,6.57319 0 0 1 -6.27576,-6.57237l0,-38.31595l-29.26514,27.39626l-0.13818,0.14966a6.27575,6.57237 0 0 1 -8.87384,0l-25.86148,-27.08379l-2.20078,41.24403a6.27654,6.57319 0 0 1 -6.27576,6.57236l-36.58672,0l26.15984,30.64832l0.14368,0.14471a6.27497,6.57155 0 0 1 0,9.29245l-25.86224,27.08459z" fill="#71D4ED"/>
    <path stroke="null" id="svg_3" d="m150.06184,367.06955l-25.90781,-0.43253c-4.43849,-0.07233 -7.97954,-3.90082 -7.91045,-8.54825c0.06909,-4.64828 3.724,-8.35669 8.16249,-8.28436l41.4798,0.69321l79.09898,-82.83755l-111.15063,0l-28.86234,32.58478c-3.02835,3.40909 -8.12244,3.60068 -11.37692,0.4292c-3.25447,-3.17148 -3.4382,-8.50635 -0.40985,-11.91464l18.68829,-21.09933l-42.80515,0c-4.45576,0 -8.06827,-3.78326 -8.06827,-8.44879c0,-4.66638 3.6125,-8.45044 8.06827,-8.45044l42.25397,0l-18.01227,-19.47455c-3.09744,-3.33511 -3.02678,-8.67078 0.1586,-11.91464c3.1846,-3.24382 8.27869,-3.16982 11.37691,0.16528l28.87962,31.22391l109.09274,0l-76.65401,-80.27618l-42.40707,1.66756c-4.43771,0.16362 -8.16406,-3.4716 -8.32031,-8.11905c-0.15703,-4.64745 3.31415,-8.5491 7.75264,-8.71356l27.4632,-1.07964l-30.27641,-31.7074c-3.15004,-3.29974 -3.15004,-8.64941 0,-11.94835c3.15005,-3.29974 8.25827,-3.29974 11.4091,0l29.8862,31.29874l0.41376,-27.13313c0.06909,-4.64745 3.72479,-8.35669 8.16251,-8.28433c4.4377,0.07236 7.97954,3.90083 7.91045,8.54828l-0.66112,43.44197l76.52997,80.1479l0,-116.71901l-29.81473,-30.24376c-3.18539,-3.24384 -3.25528,-8.57953 -0.15781,-11.91464c3.09741,-3.33593 8.19229,-3.40993 11.37689,-0.1661l18.59564,18.86361l0,-38.47465c0,-4.66636 3.61252,-8.44961 8.06827,-8.44961s8.06827,3.78325 8.06827,8.44961l0,39.05187l20.14633,-19.5724c3.25446,-3.17148 8.34854,-2.97906 11.37689,0.42922c3.02838,3.40912 2.84464,8.74316 -0.40985,11.91464l-31.11337,30.22731l0,119.29189l81.04776,-84.8784l-0.6619,-43.44113c-0.06909,-4.64827 3.47275,-8.47592 7.91046,-8.54828c4.43771,-0.07236 8.09338,3.63689 8.16248,8.28433l0.41299,27.13312l25.98709,-27.21535c3.15005,-3.29893 8.25827,-3.29893 11.40912,0c3.15002,3.29974 3.15002,8.64941 0,11.94917l-26.37732,27.6232l27.46552,1.07964c4.43771,0.16362 7.90891,4.06612 7.75266,8.71355c-0.15704,4.64827 -3.8826,8.28268 -8.32031,8.11905l-42.40942,-1.66756l-78.60278,82.31787l111.85181,0l28.87881,-31.22391c3.09744,-3.3351 8.19232,-3.4091 11.37692,-0.16525c3.18539,3.24384 3.25604,8.5795 0.15781,11.91461l-18.01147,19.47455l36.73825,0c4.45575,0 8.06827,3.78409 8.06827,8.45044c0,4.66553 -3.61252,8.44879 -8.06827,8.44879l-37.28943,0l18.68909,21.09933c3.02832,3.40829 2.8446,8.74316 -0.40985,11.91464c-3.25528,3.17148 -8.34857,2.97989 -11.37772,-0.42923l-28.86234,-32.58475l-113.90887,0l81.04852,84.87921l41.48135,-0.69318c4.43771,-0.07236 8.09341,3.6369 8.16251,8.28433c0.06909,4.64828 -3.47275,8.47592 -7.91046,8.54828l-25.91016,0.4325l25.98712,27.21457c3.15082,3.29974 3.15082,8.64941 0,11.94833c-3.15005,3.29974 -8.2583,3.29974 -11.40912,0l-26.37653,-27.62323l-1.03094,28.76288c-0.15622,4.64825 -3.8826,8.28268 -8.32028,8.11905c-4.43851,-0.16446 -7.90887,-4.0661 -7.75262,-8.71353l1.59308,-44.41306l-81.17181,-85.00751l0,116.82428l31.11337,30.2265c3.25449,3.17148 3.43823,8.50635 0.40985,11.91464c-3.02835,3.40829 -8.12244,3.60071 -11.37689,0.4292l-20.14633,-19.57156l0,44.8291c0,4.66638 -3.61252,8.44965 -8.06827,8.44965s-8.06827,-3.78326 -8.06827,-8.44965l0,-44.25186l-18.59564,18.86279c-3.1846,3.2438 -8.27948,3.1698 -11.37689,-0.16531c-3.09747,-3.33594 -3.02759,-8.6716 0.15781,-11.91544l29.81473,-30.24295l0,-114.25058l-76.65401,80.27701l1.59306,44.41306c0.15625,4.64746 -3.31493,8.54993 -7.75262,8.71353c-4.43848,0.16364 -8.16405,-3.47159 -8.3203,-8.11905l-1.03169,-28.76285l-30.27719,31.70822c-3.15005,3.29892 -8.25829,3.29892 -11.40912,0c-3.15004,-3.29977 -3.15004,-8.64862 0,-11.94836l29.88698,-31.29956l0,0.00003z" fill="#38C0F2"/>
   </g>
  </g>
 </g>
</svg>