<svg width="524" height="524" xmlns="http://www.w3.org/2000/svg" data-name="Layer 1">

 <title>gluten-free</title>
 <g>
  <title>Layer 1</title>
  <path fill="#ddd94d" stroke="null" id="svg_3" fill-rule="evenodd" d="m345.93036,179.22856c57.47159,10.49207 94.81906,-16.17529 101.88971,-97.83856c-33.90277,0 -118.84113,13.20252 -101.88971,97.83856zm-109.32295,126.0797c36.25969,40.4819 62.36668,49.92474 131.98528,0c-45.32462,-25.26837 -84.3038,-59.71738 -131.98528,0zm66.1739,-63.91422c33.44955,37.68402 58.19684,46.51486 122.92035,0c-41.97058,-23.5197 -78.41156,-55.60794 -122.92035,0zm-162.35271,115.32538c-47.22823,-38.99554 -58.28745,-67.84875 0,-143.39165c29.55162,49.0504 69.79991,91.54332 0,143.39165zm74.87624,-71.95813c-41.97057,-34.53641 -51.7607,-60.15453 0,-127.30379c26.19765,43.71696 61.91339,81.31354 0,127.30379zm66.26459,-63.82677c-38.97917,-32.26312 -48.13475,-56.04512 0,-118.56037c24.47528,40.56934 57.74353,75.71775 0,118.56037zm-119.5663,156.59413c40.42953,45.55307 70.34375,56.22 148.66466,0c-50.85416,-28.50342 -94.90968,-67.3241 -148.66466,0zm-45.95916,3.23505a14.86647,14.33916 0 0 1 21.03063,20.72186l-33.63087,32.52539a14.86647,14.33916 0 0 1 -21.03061,-20.3721l33.63085,-32.43796l0,-0.43719z" class="cls-2"/>
  <path fill="#ddd94d" stroke="null" id="svg_4" d="m261.92706,1.00027a257.73596,259.07913 0 0 0 -50.83353,5.00832a252.88828,254.20615 0 0 0 -48.67897,14.82192a257.19733,258.53769 0 0 0 -44.97586,24.16176a261.0351,262.39545 0 0 0 -39.45489,32.5541a260.0925,261.44791 0 0 0 -56.48915,84.93841a260.29449,261.65097 0 0 0 24.03651,245.20473a264.06491,265.44104 0 0 0 32.45264,39.9989l0.40398,0.40604a263.12231,264.49356 0 0 0 39.0509,32.21573a266.55609,267.94519 0 0 0 44.97586,24.16174a260.42911,261.78632 0 0 0 198.95763,0a260.0925,261.44791 0 0 0 84.49808,-56.78351a260.90045,262.26004 0 0 0 56.42178,-85.27686a252.21498,253.52934 0 0 0 14.74512,-48.86496a261.43909,262.80154 0 0 0 0,-102.12915a251.40703,252.71719 0 0 0 -14.74512,-48.93266a257.19733,258.53769 0 0 0 -24.0365,-45.21024a264.19955,265.57642 0 0 0 -32.38528,-39.72817a260.0925,261.44791 0 0 0 -39.52219,-32.5541a257.19733,258.53769 0 0 0 -44.97589,-24.16176a251.40703,252.71719 0 0 0 -48.67896,-14.82192a257.60129,258.94373 0 0 0 -50.76617,-5.00832zm-170.00611,130.82547l299.95133,301.5145a7.87751,7.91856 0 0 1 0,11.23486a5.58832,5.61744 0 0 1 -1.41391,1.15054a222.18619,223.34406 0 0 1 -26.25836,16.04019a211.81747,212.92134 0 0 1 -28.6149,12.38547a216.59785,217.72662 0 0 1 -35.88641,9.4075a229.59236,230.78886 0 0 1 -37.43503,3.11331a222.18619,223.34406 0 0 1 -43.62929,-4.26385a222.18619,223.34406 0 0 1 -80.52563,-33.43393a225.48532,226.66039 0 0 1 -33.66457,-27.95187a226.22591,227.40486 0 0 1 -48.47698,-72.8237a222.72481,223.88553 0 0 1 -16.83229,-84.87076l0,-0.87982a221.58022,222.73494 0 0 1 3.16447,-37.56239a219.08905,220.23077 0 0 1 9.35875,-36.47954a211.81747,212.92134 0 0 1 12.32124,-28.76402a223.3981,224.56232 0 0 1 16.22633,-27.07199a7.87751,7.91856 0 0 1 10.77266,-1.62433l1.00993,0.87984l-0.06733,0zm327.89292,276.87897l-303.3851,-304.96617a7.87751,7.91856 0 0 1 0,-11.23489l0.87527,-0.81216a222.99413,224.15623 0 0 1 29.28818,-21.18385a217.2038,218.33574 0 0 1 32.65463,-16.37857a220.50293,221.65205 0 0 1 40.39749,-11.91169a230.06367,231.26262 0 0 1 42.21536,-3.99312a226.49524,227.67558 0 0 1 43.56195,4.26384a223.46542,224.62997 0 0 1 41.8114,12.65617a220.16632,221.31367 0 0 1 38.51224,20.71008a222.9268,224.08855 0 0 1 95.00146,142.80484a226.49524,227.67558 0 0 1 4.2417,43.78897a230.06367,231.26262 0 0 1 -3.97238,42.43539a220.50293,221.65205 0 0 1 -11.84995,40.608a224.07138,225.23911 0 0 1 -37.77164,62.67166a7.87751,7.91856 0 0 1 -11.10928,0.87985l-0.47134,-0.40607l0,0.06769z"/>
 </g>
</svg>