<svg width="524" height="524" xmlns="http://www.w3.org/2000/svg" data-name="Layer 1">

 <title>sugar-free</title>
 <g>
  <title>Layer 1</title>
  <path fill="#8e322f" stroke="null" id="svg_1" fill-rule="evenodd" d="m295.08093,319.259c63.50418,0 67.5863,-76.82089 190.72305,-64.56284c38.5065,3.82718 44.52451,46.31439 29.45853,59.7373c-11.27844,10.1503 -21.79932,-1.05389 -32.82523,-5.54663a122.63171,161.62898 0 0 0 -29.20609,-7.54343c-28.32227,-3.43893 -110.80618,32.50327 -123.76797,63.1207c-35.51852,84.08704 -166.14616,64.00818 -165.68326,-45.92615l131.30096,0.72104zm-75.11929,-216.59615l44.10367,0a13.80343,18.19297 0 0 1 13.67712,18.02657l0,57.01944a13.71926,18.08204 0 0 1 -13.67712,18.02658l-44.10367,0a13.6351,17.9711 0 0 1 -9.67924,-5.54663l-0.505,-0.77655a13.42468,17.69377 0 0 1 -3.49294,-11.92526l0,-56.79758a13.59301,17.91564 0 0 1 4.20836,-12.7018l0,0a13.76135,18.1375 0 0 1 9.63715,-5.54663l-0.16832,0.22186zm41.78903,106.88368l44.14575,0a13.6351,17.9711 0 0 1 13.63507,18.02658l0,56.96393a13.59301,17.91564 0 0 1 -4.20837,12.75729a13.76135,18.1375 0 0 1 -9.63718,5.54663l-43.93527,0a13.67718,18.02657 0 0 1 -9.63715,-5.54663l-0.54706,-0.77652a13.80343,18.19297 0 0 1 -3.49297,-11.98077l0,-56.96393a13.6351,17.9711 0 0 1 4.20836,-12.70181l0,0a13.55093,17.86017 0 0 1 9.59506,-5.54663l-0.12625,0.22186zm42.79907,19.91245l-41.32611,0l0,53.19223l41.32611,0l0,-53.19223zm-126.25092,-19.91245l43.97742,0a13.71926,18.08204 0 0 1 13.67717,18.02658l0,56.96393a13.71926,18.08204 0 0 1 -13.67717,18.02658l-43.97742,0a13.76135,18.1375 0 0 1 -9.63715,-5.54663l-0.54709,-0.77655a13.80343,18.19297 0 0 1 -3.49295,-11.98071l0,-56.68661a13.6351,17.9711 0 0 1 4.20837,-12.70181l0,0a13.55093,17.86017 0 0 1 9.59506,-5.54663l-0.12625,0.22186zm42.50446,19.91245l-41.19984,0l0,53.19223l41.19984,0l0,-53.19223zm41.66281,-106.8837l-41.24196,0l0,53.30319l41.24196,0l0,-53.30319z" class="cls-1"/>
  <path stroke="null" id="svg_2" fill="#8e322f" d="m262.55045,0.32005a259.68417,258.95645 0 0 1 99.69812,19.76678a261.03302,260.30154 0 0 1 159.7515,210.00739a303.78592,302.93463 0 0 0 -51.02197,8.12894a208.66222,208.0775 0 0 0 -37.35745,-98.1906l-292.29132,291.17984a209.89378,209.3056 0 0 0 309.18134,-77.78055a287.01315,286.20889 0 0 1 35.18753,-14.50342c9.96985,-2.69012 19.47046,-4.91248 27.97412,-6.43295a261.26761,260.53546 0 1 1 -251.12186,-332.17543zm-159.34099,396.3297l295.63414,-294.74719a209.65919,209.07169 0 0 0 -295.63414,294.74719z" class="cls-2"/>
 </g>
</svg>